<?xml version="1.0" encoding="utf-8"?>
<!-- Generator: Adobe Illustrator 15.0.2, SVG Export Plug-In . SVG Version: 6.00 Build 0)  -->
<!DOCTYPE svg PUBLIC "-//W3C//DTD SVG 1.1//EN" "http://www.w3.org/Graphics/SVG/1.1/DTD/svg11.dtd">
<svg version="1.1" id="Capa_1" xmlns="http://www.w3.org/2000/svg" xmlns:xlink="http://www.w3.org/1999/xlink" x="0px" y="0px"
	 width="300px" height="100px" viewBox="0 0 300 100" enable-background="new 0 0 300 100" xml:space="preserve">
<g>
	<g>
		<path fill="#2F3389" d="M64.143,52.958c-4.282-6.455-21.061-25.367-30.278-33.24c-5.717-4.883-9.756-2.759-11.826,1.119
			C17.502,29.335,11.009,43.03,5.746,56.516c17.252-9.169,35.723-20.654,32.567-24.334c3.779,2.804-10.222,14.745-35.309,31.664
			c-0.833,2.338-1.609,4.641-2.311,6.875c-3.095,9.854,3.383,13.647,11.068,12.038c29.425-34.296,37.36-45.789,28.854-50.731
			c8.358,3.088,4.939,15.417-15.59,46.558c11.347-3.81,26.724-9.259,34.206-12.575C65.152,63.386,68.785,59.955,64.143,52.958z"/>
	</g>
	<g>
		<g>
			<path fill="#FFFFFF" d="M38.313,32.182c3.156,3.68-15.315,15.165-32.567,24.334c-0.96,2.461-1.881,4.915-2.741,7.33
				C28.091,46.927,42.092,34.985,38.313,32.182z"/>
		</g>
		<g>
			<path fill="#FFFFFF" d="M40.615,32.027c8.506,4.942,0.571,16.436-28.854,50.731c0.5-0.104,1.006-0.231,1.515-0.382
				c2.392-0.709,6.667-2.086,11.749-3.792C45.555,47.444,48.974,35.115,40.615,32.027z"/>
		</g>
	</g>
	<g>
		<path fill="#2F3389" d="M59.585,42.862l1.397-5.241c0-0.007,0-0.016,0-0.025c0-0.083-0.054-0.123-0.162-0.123h-1.685
			c-0.133,0-0.233-0.038-0.299-0.112c-0.241-0.241-0.362-0.371-0.362-0.388c0-0.033,0.038-0.05,0.112-0.05h7.237
			c0.107,0,0.162,0.037,0.162,0.112c0,0.291-0.104,0.438-0.312,0.438H63.99c-0.133,0-0.212,0.049-0.237,0.148l-1.386,5.241
			c-0.033,0.1-0.112,0.149-0.237,0.149h-2.383c-0.108,0-0.162-0.037-0.162-0.112C59.585,42.882,59.585,42.87,59.585,42.862z"/>
		<path fill="#2F3389" d="M79.011,38.008l-0.585,2.221c-0.067,0.251-0.246,0.478-0.537,0.681c-0.292,0.204-0.603,0.334-0.936,0.394
			c0.008,0.041,0.125,0.313,0.35,0.816c0.224,0.503,0.336,0.763,0.336,0.78c0,0.066-0.05,0.1-0.149,0.1h-2.381
			c-0.133,0-0.216-0.046-0.25-0.137l-0.486-1.386c-0.042-0.091-0.117-0.137-0.225-0.137c-0.116,0-0.191,0.049-0.224,0.149
			l-0.349,1.36c-0.034,0.1-0.113,0.149-0.237,0.149h-2.386c-0.108,0-0.162-0.037-0.162-0.112c0-0.017,0-0.03,0-0.038l1.397-5.239
			c0-0.017,0-0.038,0-0.063c0-0.101-0.071-0.217-0.212-0.35c-0.141-0.134-0.212-0.212-0.212-0.237c0-0.042,0.038-0.062,0.112-0.062
			h6.039c0.324,0,0.592,0.083,0.805,0.248c0.212,0.168,0.318,0.379,0.318,0.637C79.036,37.857,79.027,37.934,79.011,38.008z
			 M75.307,40.778c0.133,0,0.211-0.05,0.235-0.15l0.8-3.019c0.007-0.008,0.012-0.021,0.012-0.038c0-0.074-0.054-0.112-0.162-0.112
			h-0.996c-0.133,0-0.212,0.051-0.236,0.15l-0.798,3.02c0,0.009-0.003,0.021-0.011,0.038c0,0.074,0.054,0.111,0.163,0.111H75.307z"
			/>
		<path fill="#2F3389" d="M85.661,42.039l-0.586,0.81c-0.066,0.1-0.167,0.15-0.3,0.15H83.79c-0.083,0-0.125-0.024-0.125-0.075
			c0-0.016,1.214-1.713,3.643-5.09c0.05-0.074,0.075-0.154,0.075-0.238c0-0.058-0.019-0.149-0.056-0.272
			c-0.038-0.126-0.056-0.218-0.056-0.275c0-0.084,0.055-0.125,0.163-0.125l3.119-0.024c0.132,0,0.212,0.05,0.237,0.149l1.298,5.814
			v0.024c0,0.075-0.054,0.112-0.163,0.112h-3.082c-0.125,0-0.2-0.046-0.225-0.137l-0.212-0.823c-0.024-0.102-0.1-0.15-0.225-0.15
			h-2.208C85.84,41.889,85.736,41.938,85.661,42.039z M87.782,39.193c-0.008-0.042-0.025-0.063-0.05-0.063
			c-0.034,0-0.063,0.021-0.087,0.063l-1.373,1.997c-0.017,0.033-0.025,0.058-0.025,0.074c0,0.05,0.037,0.075,0.112,0.075h1.709
			c0.1,0,0.149-0.042,0.149-0.125L87.782,39.193z"/>
		<path fill="#2F3389" d="M99.161,37.197c-0.142-0.134-0.212-0.212-0.212-0.237c0-0.042,0.037-0.062,0.112-0.062h3.069
			c0.134,0,0.221,0.046,0.263,0.137l1.572,3.893c0.008,0.024,0.025,0.045,0.05,0.063c0.025,0,0.042-0.025,0.049-0.075l0.999-3.854
			c0.025-0.108,0.104-0.162,0.237-0.162h0.998c0.108,0,0.163,0.041,0.163,0.124c0,0.008-0.004,0.021-0.013,0.038l-1.534,5.788
			c-0.025,0.1-0.104,0.15-0.238,0.15h-2.383c-0.133,0-0.216-0.046-0.25-0.137l-1.584-3.895c-0.009-0.023-0.026-0.041-0.05-0.048
			c-0.017,0-0.033,0.024-0.05,0.074l-0.986,3.854c-0.033,0.1-0.112,0.15-0.237,0.15h-0.999c-0.108,0-0.162-0.037-0.162-0.112
			c0-0.017,0-0.03,0-0.038l1.397-5.239c0-0.017,0-0.038,0-0.063C99.373,37.446,99.302,37.33,99.161,37.197z"/>
		<path fill="#2F3389" d="M114.981,39.117h2.583c0.324,0,0.593,0.083,0.805,0.245c0.211,0.162,0.318,0.373,0.318,0.63
			c0,0.083-0.013,0.162-0.038,0.236l-0.437,1.66c-0.083,0.308-0.287,0.569-0.611,0.786c-0.325,0.216-0.683,0.324-1.073,0.324h-5.353
			c-0.059,0-0.087-0.014-0.087-0.037c0-0.017,0.02-0.042,0.062-0.075c0.449-0.291,0.741-0.437,0.874-0.437h3.069
			c0.133,0,0.212-0.055,0.237-0.162c0.241-0.915,0.362-1.377,0.362-1.385c0-0.083-0.05-0.125-0.15-0.125h-2.583
			c-0.324,0-0.592-0.081-0.804-0.244c-0.212-0.161-0.318-0.372-0.318-0.629c0-0.076,0.012-0.15,0.038-0.226l0.437-1.672
			c0.083-0.3,0.287-0.559,0.611-0.779c0.325-0.221,0.682-0.33,1.074-0.33h5.352c0.058,0,0.087,0.012,0.087,0.037
			c0,0.024-0.021,0.05-0.063,0.074c-0.449,0.3-0.74,0.449-0.873,0.449h-3.069c-0.134,0-0.212,0.051-0.237,0.15
			c-0.241,0.914-0.362,1.377-0.362,1.385C114.831,39.077,114.881,39.117,114.981,39.117z"/>
		<path fill="#2F3389" d="M132.155,37.146c0.212,0.168,0.318,0.379,0.318,0.637c0,0.074-0.008,0.15-0.025,0.225l-0.586,2.221
			c-0.083,0.309-0.289,0.57-0.618,0.787c-0.328,0.216-0.684,0.324-1.066,0.324h-2.581c-0.125,0-0.204,0.049-0.237,0.149l-0.349,1.36
			c-0.034,0.1-0.113,0.149-0.237,0.149h-2.386c-0.108,0-0.162-0.037-0.162-0.112c0-0.017,0-0.03,0-0.038l1.397-5.239
			c0.008-0.017,0.013-0.038,0.013-0.063c0-0.101-0.073-0.217-0.218-0.35c-0.146-0.134-0.218-0.212-0.218-0.237
			c0-0.042,0.037-0.062,0.112-0.062h6.038C131.675,36.898,131.943,36.981,132.155,37.146z M128.979,40.628l0.799-3.019
			c0.008-0.008,0.012-0.021,0.012-0.038c0-0.074-0.054-0.112-0.162-0.112h-0.996c-0.133,0-0.211,0.051-0.236,0.15l-0.798,3.02
			c0,0.009-0.003,0.021-0.01,0.038c0,0.074,0.054,0.111,0.162,0.111h0.993C128.875,40.778,128.954,40.729,128.979,40.628z"/>
		<path fill="#2F3389" d="M145.179,37.146c0.211,0.168,0.318,0.379,0.318,0.637c0,0.074-0.008,0.15-0.023,0.225l-1.038,3.881
			c-0.083,0.308-0.286,0.569-0.611,0.786c-0.323,0.216-0.682,0.324-1.073,0.324h-4.154c-0.325,0-0.593-0.082-0.805-0.243
			c-0.212-0.162-0.318-0.372-0.318-0.631c0-0.074,0.013-0.153,0.037-0.236l1.023-3.881c0.083-0.3,0.287-0.559,0.61-0.779
			c0.325-0.221,0.683-0.33,1.074-0.33h4.155C144.699,36.898,144.967,36.981,145.179,37.146z M141.318,42.45
			c0.132,0,0.211-0.055,0.237-0.162l1.248-4.679c0-0.008,0-0.021,0-0.038c0-0.074-0.051-0.112-0.15-0.112h-0.996
			c-0.134,0-0.211,0.051-0.237,0.15l-1.248,4.679c0,0.018,0,0.029-0.002,0.037c0,0.083,0.053,0.125,0.162,0.125H141.318z"/>
		<path fill="#2F3389" d="M158.984,38.008l-0.586,2.221c-0.067,0.251-0.245,0.478-0.537,0.681c-0.291,0.204-0.603,0.334-0.936,0.394
			c0.008,0.041,0.125,0.313,0.35,0.816s0.337,0.763,0.337,0.78c0,0.066-0.05,0.1-0.15,0.1h-2.381c-0.134,0-0.216-0.046-0.25-0.137
			l-0.485-1.386c-0.042-0.091-0.116-0.137-0.224-0.137c-0.117,0-0.191,0.049-0.225,0.149l-0.35,1.36
			c-0.033,0.1-0.112,0.149-0.238,0.149h-2.385c-0.108,0-0.162-0.037-0.162-0.112c0-0.017,0-0.03,0-0.038l1.397-5.239
			c0-0.017,0-0.038,0-0.063c0-0.101-0.071-0.217-0.212-0.35c-0.141-0.134-0.212-0.212-0.212-0.237c0-0.042,0.038-0.062,0.112-0.062
			h6.037c0.326,0,0.593,0.083,0.806,0.248c0.212,0.168,0.317,0.379,0.317,0.637C159.009,37.857,159.001,37.934,158.984,38.008z
			 M155.279,40.778c0.133,0,0.212-0.05,0.236-0.15l0.8-3.019c0.007-0.008,0.012-0.021,0.012-0.038c0-0.074-0.054-0.112-0.162-0.112
			h-0.995c-0.133,0-0.212,0.051-0.235,0.15l-0.8,3.02c0,0.009-0.003,0.021-0.011,0.038c0,0.074,0.055,0.111,0.163,0.111H155.279z"/>
		<path fill="#2F3389" d="M165.722,42.862l1.397-5.241c0-0.007,0-0.016,0-0.025c0-0.083-0.054-0.123-0.161-0.123h-1.686
			c-0.132,0-0.233-0.038-0.299-0.112c-0.241-0.241-0.362-0.371-0.362-0.388c0-0.033,0.037-0.05,0.112-0.05h7.236
			c0.107,0,0.163,0.037,0.163,0.112c0,0.291-0.104,0.438-0.313,0.438h-1.683c-0.135,0-0.213,0.049-0.238,0.148l-1.385,5.241
			c-0.033,0.1-0.112,0.149-0.236,0.149h-2.383c-0.108,0-0.163-0.037-0.163-0.112C165.722,42.882,165.722,42.87,165.722,42.862z"/>
		<path fill="#2F3389" d="M176.626,42.039l-0.586,0.81c-0.066,0.1-0.167,0.15-0.3,0.15h-0.985c-0.083,0-0.125-0.024-0.125-0.075
			c0-0.016,1.214-1.713,3.644-5.09c0.049-0.074,0.074-0.154,0.074-0.238c0-0.058-0.019-0.149-0.056-0.272
			c-0.038-0.126-0.056-0.218-0.056-0.275c0-0.084,0.053-0.125,0.161-0.125l3.12-0.024c0.132,0,0.212,0.05,0.236,0.149l1.298,5.814
			v0.024c0,0.075-0.055,0.112-0.162,0.112h-3.082c-0.125,0-0.2-0.046-0.225-0.137l-0.213-0.823c-0.023-0.102-0.099-0.15-0.224-0.15
			h-2.208C176.805,41.889,176.701,41.938,176.626,42.039z M178.747,39.193c-0.009-0.042-0.025-0.063-0.05-0.063
			c-0.034,0-0.063,0.021-0.088,0.063l-1.372,1.997c-0.016,0.033-0.025,0.058-0.025,0.074c0,0.05,0.038,0.075,0.113,0.075h1.708
			c0.102,0,0.149-0.042,0.149-0.125L178.747,39.193z"/>
		<path fill="#2F3389" d="M190.125,37.197c-0.141-0.134-0.212-0.212-0.212-0.237c0-0.042,0.038-0.062,0.112-0.062h6.039
			c0.324,0,0.593,0.083,0.804,0.248c0.213,0.168,0.318,0.379,0.318,0.637c0,0.074-0.008,0.15-0.024,0.225l-1.036,3.881
			c-0.074,0.308-0.275,0.569-0.604,0.786c-0.329,0.216-0.684,0.324-1.066,0.324h-5.352c-0.109,0-0.164-0.037-0.164-0.112
			c0-0.017,0-0.03,0-0.038l1.398-5.239c0-0.017,0-0.038,0-0.063C190.338,37.446,190.267,37.33,190.125,37.197z M193.111,37.609
			l-1.248,4.68c0,0.017-0.001,0.028-0.003,0.036c0,0.083,0.053,0.125,0.161,0.125h0.999c0.123,0,0.203-0.055,0.237-0.162
			l1.234-4.679c0.009-0.008,0.013-0.021,0.013-0.038c0-0.074-0.055-0.112-0.162-0.112h-0.995
			C193.214,37.459,193.137,37.51,193.111,37.609z"/>
		<path fill="#2F3389" d="M210.156,37.146c0.213,0.168,0.318,0.379,0.318,0.637c0,0.074-0.008,0.15-0.025,0.225l-1.035,3.881
			c-0.083,0.308-0.287,0.569-0.61,0.786c-0.325,0.216-0.683,0.324-1.073,0.324h-4.155c-0.324,0-0.593-0.082-0.805-0.243
			c-0.213-0.162-0.318-0.372-0.318-0.631c0-0.074,0.013-0.153,0.037-0.236l1.023-3.881c0.083-0.3,0.287-0.559,0.61-0.779
			c0.326-0.221,0.684-0.33,1.075-0.33h4.153C209.677,36.898,209.944,36.981,210.156,37.146z M206.295,42.45
			c0.133,0,0.212-0.055,0.237-0.162l1.248-4.679c0-0.008,0-0.021,0-0.038c0-0.074-0.05-0.112-0.15-0.112h-0.995
			c-0.133,0-0.211,0.051-0.237,0.15l-1.247,4.679c0,0.018-0.001,0.029-0.003,0.037c0,0.083,0.053,0.125,0.163,0.125H206.295z"/>
		<path fill="#2F3389" d="M223.962,38.008l-0.587,2.221c-0.066,0.251-0.245,0.478-0.537,0.681c-0.29,0.204-0.603,0.334-0.935,0.394
			c0.008,0.041,0.124,0.313,0.349,0.816s0.337,0.763,0.337,0.78c0,0.066-0.049,0.1-0.15,0.1h-2.381
			c-0.134,0-0.217-0.046-0.249-0.137l-0.487-1.386c-0.041-0.091-0.115-0.137-0.224-0.137c-0.116,0-0.191,0.049-0.225,0.149
			l-0.349,1.36c-0.034,0.1-0.112,0.149-0.237,0.149h-2.386c-0.109,0-0.162-0.037-0.162-0.112c0-0.017,0-0.03,0-0.038l1.397-5.239
			c0-0.017,0-0.038,0-0.063c0-0.101-0.07-0.217-0.212-0.35c-0.142-0.134-0.213-0.212-0.213-0.237c0-0.042,0.037-0.062,0.113-0.062
			h6.038c0.324,0,0.593,0.083,0.805,0.248c0.213,0.168,0.318,0.379,0.318,0.637C223.986,37.857,223.979,37.934,223.962,38.008z
			 M220.256,40.778c0.133,0,0.211-0.05,0.237-0.15l0.798-3.019c0.009-0.008,0.013-0.021,0.013-0.038
			c0-0.074-0.054-0.112-0.162-0.112h-0.995c-0.132,0-0.212,0.051-0.236,0.15l-0.799,3.02c0,0.009-0.003,0.021-0.01,0.038
			c0,0.074,0.054,0.111,0.161,0.111H220.256z"/>
		<path fill="#2F3389" d="M230.611,42.039l-0.586,0.81c-0.067,0.1-0.167,0.15-0.3,0.15h-0.986c-0.084,0-0.123-0.024-0.123-0.075
			c0-0.016,1.214-1.713,3.642-5.09c0.051-0.074,0.075-0.154,0.075-0.238c0-0.058-0.02-0.149-0.057-0.272
			c-0.036-0.126-0.056-0.218-0.056-0.275c0-0.084,0.054-0.125,0.161-0.125l3.12-0.024c0.134,0,0.212,0.05,0.237,0.149l1.298,5.814
			v0.024c0,0.075-0.054,0.112-0.162,0.112h-3.082c-0.125,0-0.2-0.046-0.225-0.137l-0.212-0.823c-0.025-0.102-0.101-0.15-0.225-0.15
			h-2.208C230.789,41.889,230.687,41.938,230.611,42.039z M232.732,39.193c-0.009-0.042-0.024-0.063-0.051-0.063
			c-0.032,0-0.062,0.021-0.087,0.063l-1.372,1.997c-0.017,0.033-0.025,0.058-0.025,0.074c0,0.05,0.038,0.075,0.112,0.075h1.709
			c0.101,0,0.15-0.042,0.15-0.125L232.732,39.193z"/>
	</g>
	<g>
		<path fill="#2F3389" d="M85.815,53.69h8.051c1.011,0,1.847,0.253,2.508,0.759c0.662,0.506,0.992,1.161,0.992,1.964
			c0,0.26-0.04,0.506-0.117,0.739l-1.362,5.173c-0.259,0.96-0.894,1.776-1.905,2.45c-1.011,0.676-2.126,1.012-3.345,1.012H73.953
			c-0.182,0-0.272-0.04-0.272-0.117c0-0.053,0.064-0.128,0.194-0.233c1.4-0.906,2.308-1.361,2.723-1.361h9.568
			c0.415,0,0.661-0.169,0.739-0.505c0.752-2.853,1.128-4.291,1.128-4.317c0-0.26-0.156-0.39-0.467-0.39h-8.051
			c-1.012,0-1.848-0.252-2.509-0.759c-0.661-0.505-0.992-1.16-0.992-1.964c0-0.233,0.04-0.467,0.117-0.699l1.361-5.211
			c0.259-0.935,0.895-1.745,1.906-2.433c1.011-0.686,2.125-1.029,3.345-1.029h16.685c0.182,0,0.272,0.039,0.272,0.116
			s-0.065,0.154-0.195,0.232c-1.4,0.934-2.308,1.401-2.722,1.401h-9.568c-0.415,0-0.661,0.154-0.739,0.466
			c-0.753,2.853-1.128,4.291-1.128,4.316C85.349,53.562,85.504,53.69,85.815,53.69z"/>
		<path fill="#2F3389" d="M102.346,62.791l-1.828,2.529c-0.208,0.311-0.519,0.467-0.934,0.467h-3.073
			c-0.259,0-0.389-0.078-0.389-0.233c0-0.052,3.786-5.342,11.356-15.869c0.156-0.232,0.233-0.48,0.233-0.739
			c0-0.181-0.058-0.466-0.174-0.856c-0.117-0.387-0.176-0.673-0.176-0.854c0-0.26,0.169-0.39,0.506-0.39l9.723-0.076
			c0.415,0,0.661,0.155,0.739,0.466l4.045,18.124v0.078c0,0.233-0.169,0.351-0.506,0.351h-9.606c-0.389,0-0.623-0.143-0.701-0.429
			l-0.661-2.567c-0.078-0.31-0.311-0.466-0.7-0.466h-6.885C102.902,62.325,102.578,62.481,102.346,62.791z M108.957,53.925
			c-0.026-0.13-0.077-0.195-0.155-0.195c-0.104,0-0.195,0.065-0.272,0.195l-4.278,6.222c-0.053,0.104-0.079,0.184-0.079,0.233
			c0,0.156,0.117,0.233,0.351,0.233h5.328c0.312,0,0.467-0.13,0.467-0.389L108.957,53.925z"/>
		<path fill="#2F3389" d="M127.898,47.702c-0.441-0.415-0.662-0.663-0.662-0.74c0-0.13,0.117-0.193,0.351-0.193h9.568
			c0.414,0,0.688,0.142,0.816,0.427l4.9,12.134c0.025,0.079,0.077,0.145,0.156,0.196c0.078,0,0.129-0.079,0.156-0.234l3.112-12.019
			c0.076-0.336,0.323-0.504,0.739-0.504h3.111c0.336,0,0.506,0.129,0.506,0.387c0,0.028-0.014,0.066-0.039,0.117l-4.784,18.048
			c-0.078,0.311-0.325,0.467-0.74,0.467h-7.428c-0.416,0-0.675-0.143-0.778-0.429l-4.939-12.135
			c-0.026-0.077-0.078-0.129-0.156-0.155c-0.052,0-0.104,0.078-0.156,0.232l-3.073,12.02c-0.103,0.311-0.35,0.467-0.739,0.467
			h-3.111c-0.337,0-0.505-0.117-0.505-0.351c0-0.052,0-0.091,0-0.116l4.355-16.336c0-0.051,0-0.117,0-0.195
			C128.559,48.479,128.339,48.117,127.898,47.702z"/>
		<path fill="#2F3389" d="M155.785,65.358l4.355-16.335c0-0.025,0-0.052,0-0.078c0-0.259-0.169-0.389-0.506-0.389h-5.251
			c-0.414,0-0.726-0.117-0.933-0.351c-0.753-0.751-1.128-1.152-1.128-1.204c0-0.104,0.117-0.157,0.35-0.157h22.558
			c0.338,0,0.506,0.117,0.506,0.351c0,0.909-0.323,1.361-0.972,1.361h-5.25c-0.416,0-0.661,0.156-0.738,0.467l-4.318,16.335
			c-0.104,0.312-0.351,0.468-0.739,0.468h-7.429c-0.337,0-0.505-0.117-0.505-0.352C155.785,65.425,155.785,65.385,155.785,65.358z"
			/>
		<path fill="#2F3389" d="M173.248,62.791l-1.829,2.529c-0.207,0.311-0.519,0.467-0.933,0.467h-3.073
			c-0.26,0-0.389-0.078-0.389-0.233c0-0.052,3.785-5.342,11.357-15.869c0.155-0.232,0.234-0.48,0.234-0.739
			c0-0.181-0.06-0.466-0.177-0.856c-0.117-0.387-0.175-0.673-0.175-0.854c0-0.26,0.169-0.39,0.505-0.39l9.724-0.076
			c0.415,0,0.662,0.155,0.739,0.466l4.047,18.124v0.078c0,0.233-0.171,0.351-0.507,0.351h-9.607c-0.388,0-0.621-0.143-0.7-0.429
			l-0.66-2.567c-0.078-0.31-0.312-0.466-0.7-0.466h-6.884C173.806,62.325,173.481,62.481,173.248,62.791z M179.859,53.925
			c-0.026-0.13-0.077-0.195-0.156-0.195c-0.104,0-0.192,0.065-0.271,0.195l-4.277,6.222c-0.053,0.104-0.078,0.184-0.078,0.233
			c0,0.156,0.117,0.233,0.35,0.233h5.328c0.313,0,0.468-0.13,0.468-0.389L179.859,53.925z"/>
		<path fill="#2F3389" d="M198.801,47.702c-0.44-0.415-0.66-0.663-0.66-0.74c0-0.13,0.116-0.193,0.35-0.193h9.567
			c0.415,0,0.687,0.142,0.817,0.427l4.899,12.134c0.026,0.079,0.079,0.145,0.156,0.196c0.078,0,0.13-0.079,0.156-0.234l3.11-12.019
			c0.079-0.336,0.324-0.504,0.739-0.504h3.112c0.337,0,0.505,0.129,0.505,0.387c0,0.028-0.013,0.066-0.039,0.117l-4.783,18.048
			c-0.077,0.311-0.325,0.467-0.738,0.467h-7.431c-0.415,0-0.674-0.143-0.777-0.429l-4.938-12.135
			c-0.027-0.077-0.078-0.129-0.156-0.155c-0.053,0-0.104,0.078-0.155,0.232l-3.072,12.02c-0.105,0.311-0.351,0.467-0.74,0.467
			h-3.111c-0.337,0-0.505-0.117-0.505-0.351c0-0.052,0-0.091,0-0.116l4.356-16.336c0-0.051,0-0.117,0-0.195
			C199.463,48.479,199.242,48.117,198.801,47.702z"/>
		<path fill="#2F3389" d="M225.366,62.791l-1.829,2.529c-0.207,0.311-0.519,0.467-0.934,0.467h-3.071
			c-0.261,0-0.39-0.078-0.39-0.233c0-0.052,3.785-5.342,11.357-15.869c0.155-0.232,0.233-0.48,0.233-0.739
			c0-0.181-0.059-0.466-0.176-0.856c-0.116-0.387-0.175-0.673-0.175-0.854c0-0.26,0.17-0.39,0.505-0.39l9.724-0.076
			c0.415,0,0.662,0.155,0.738,0.466l4.047,18.124v0.078c0,0.233-0.17,0.351-0.507,0.351h-9.606c-0.388,0-0.622-0.143-0.7-0.429
			l-0.66-2.567c-0.079-0.31-0.313-0.466-0.7-0.466h-6.884C225.924,62.325,225.6,62.481,225.366,62.791z M231.978,53.925
			c-0.026-0.13-0.078-0.195-0.156-0.195c-0.104,0-0.193,0.065-0.271,0.195l-4.277,6.222c-0.053,0.104-0.079,0.184-0.079,0.233
			c0,0.156,0.117,0.233,0.351,0.233h5.328c0.312,0,0.467-0.13,0.467-0.389L231.978,53.925z"/>
	</g>
	<g>
		<path fill="#2F3389" d="M251.362,61.434h2.914c0.365,0,0.668,0.09,0.908,0.273c0.239,0.184,0.358,0.42,0.358,0.711
			c0,0.094-0.013,0.184-0.042,0.268l-0.492,1.873c-0.095,0.348-0.324,0.644-0.691,0.887c-0.365,0.245-0.769,0.366-1.209,0.366
			h-6.041c-0.065,0-0.099-0.014-0.099-0.043c0-0.018,0.023-0.046,0.07-0.083c0.507-0.33,0.835-0.494,0.985-0.494h3.464
			c0.149,0,0.24-0.06,0.267-0.183c0.272-1.032,0.409-1.553,0.409-1.563c0-0.095-0.056-0.141-0.168-0.141h-2.915
			c-0.366,0-0.669-0.092-0.908-0.274c-0.24-0.184-0.359-0.421-0.359-0.711c0-0.085,0.013-0.17,0.043-0.254l0.491-1.887
			c0.095-0.337,0.325-0.631,0.691-0.881c0.365-0.248,0.77-0.373,1.21-0.373h6.04c0.065,0,0.1,0.015,0.1,0.043
			s-0.024,0.057-0.071,0.085c-0.507,0.337-0.835,0.507-0.985,0.507h-3.464c-0.149,0-0.239,0.056-0.267,0.169
			c-0.273,1.033-0.409,1.553-0.409,1.563C251.192,61.386,251.249,61.434,251.362,61.434z"/>
		<path fill="#2F3389" d="M256.986,65.628c-0.203,0.151-0.425,0.226-0.67,0.226c-0.421,0-0.634-0.163-0.634-0.493
			c0-0.195,0.1-0.372,0.296-0.526c0.198-0.155,0.424-0.233,0.676-0.233c0.423,0,0.634,0.164,0.634,0.493
			C257.288,65.3,257.188,65.479,256.986,65.628z"/>
		<path fill="#2F3389" d="M260.246,64.728l-0.661,0.915c-0.076,0.113-0.188,0.169-0.338,0.169h-1.113
			c-0.094,0-0.141-0.028-0.141-0.084c0-0.02,1.371-1.935,4.111-5.745c0.056-0.085,0.084-0.174,0.084-0.268
			c0-0.065-0.021-0.168-0.063-0.31c-0.042-0.141-0.064-0.243-0.064-0.31c0-0.094,0.062-0.142,0.184-0.142l3.521-0.028
			c0.149,0,0.238,0.058,0.267,0.17l1.464,6.561v0.029c0,0.083-0.061,0.126-0.182,0.126h-3.479c-0.141,0-0.225-0.051-0.253-0.155
			l-0.24-0.929c-0.027-0.113-0.111-0.169-0.253-0.169h-2.492C260.447,64.559,260.331,64.614,260.246,64.728z M262.641,61.518
			c-0.01-0.047-0.03-0.07-0.058-0.07c-0.038,0-0.07,0.023-0.099,0.07l-1.549,2.253c-0.019,0.037-0.028,0.064-0.028,0.084
			c0,0.056,0.043,0.085,0.128,0.085h1.929c0.112,0,0.168-0.047,0.168-0.142L262.641,61.518z"/>
		<path fill="#2F3389" d="M269.728,65.628c-0.202,0.151-0.424,0.226-0.669,0.226c-0.422,0-0.633-0.163-0.633-0.493
			c0-0.195,0.099-0.372,0.295-0.526c0.198-0.155,0.424-0.233,0.676-0.233c0.423,0,0.634,0.164,0.634,0.493
			C270.03,65.3,269.93,65.479,269.728,65.628z"/>
		<path fill="#2F3389" d="M274.649,61.434h2.915c0.366,0,0.668,0.09,0.907,0.273c0.24,0.184,0.36,0.42,0.36,0.711
			c0,0.094-0.015,0.184-0.043,0.268l-0.493,1.873c-0.094,0.348-0.323,0.644-0.689,0.887c-0.367,0.245-0.77,0.366-1.211,0.366h-6.041
			c-0.064,0-0.099-0.014-0.099-0.043c0-0.018,0.023-0.046,0.07-0.083c0.508-0.33,0.837-0.494,0.986-0.494h3.464
			c0.15,0,0.239-0.06,0.267-0.183c0.272-1.032,0.408-1.553,0.408-1.563c0-0.095-0.055-0.141-0.168-0.141h-2.915
			c-0.366,0-0.669-0.092-0.907-0.274c-0.24-0.184-0.36-0.421-0.36-0.711c0-0.085,0.015-0.17,0.043-0.254l0.492-1.887
			c0.094-0.337,0.324-0.631,0.69-0.881c0.366-0.248,0.771-0.373,1.211-0.373h6.04c0.065,0,0.099,0.015,0.099,0.043
			s-0.023,0.057-0.07,0.085c-0.507,0.337-0.836,0.507-0.986,0.507h-3.464c-0.149,0-0.238,0.056-0.266,0.169
			c-0.273,1.033-0.409,1.553-0.409,1.563C274.48,61.386,274.537,61.434,274.649,61.434z"/>
	</g>
	<g>
		<path fill="#2F3389" d="M61.474,72.394l-4.792,5.477c68.876-6.414,145.343-6.779,210.34-0.514
			C215.64,69.865,157.315,67.601,61.474,72.394z"/>
	</g>
</g>
</svg>
